# xmcd
#
# Track frame offsets:
#	150
#	17971
#	30927
#	46755
#	64622
#	80086
#	93351
#	114425
#	130388
#	151240
#	166186
#
# Disc length: 2333 seconds
#
# Revision: 0
# Processed by: cddbd v1.4PL0 Copyright (c) Steve Scherf et al.
# Submitted via: EasyCDDAExtractor 4.6.0.1
#
DISCID=7d091b0b
DTITLE=Faye Pierce
DYEAR=1900
DGENRE=Country
TTITLE0=on the line
TTITLE1=separate ways
TTITLE2=the one you used to know
TTITLE3=mine for the taking
TTITLE4=lies
TTITLE5=just say goodbye
TTITLE6=trust in me
TTITLE7=things got changed
TTITLE8=fast enough
TTITLE9=angels choir
TTITLE10=my warfare
EXTD=
EXTT0=
EXTT1=
EXTT2=
EXTT3=
EXTT4=
EXTT5=
EXTT6=
EXTT7=
EXTT8=
EXTT9=
EXTT10=
PLAYORDER=
